<?xml version="1.0" encoding="UTF-8"?>
<svg width="55px" height="41px" viewBox="0 0 55 41" version="1.1" xmlns="http://www.w3.org/2000/svg" xmlns:xlink="http://www.w3.org/1999/xlink">
    <!-- Generator: Sketch 55.2 (78181) - https://sketchapp.com -->
    <title>Group 38 Copy</title>
    <desc>Created with Sketch.</desc>
    <g id="Page-1" stroke="none" stroke-width="1" fill="none" fill-rule="evenodd">
        <g id="unlock" transform="translate(-372.000000, -17.000000)">
            <g id="Group-38-Copy" transform="translate(375.000000, 17.000000)">
                <path d="M24.6787943,41 C13.1441915,41 3.79354839,31.8218374 3.79354839,20.5 C3.79354839,9.17816263 13.1441915,0 24.6787943,0 C36.2133971,0 45.5640402,9.17816263 45.5640402,20.5 C45.5640402,31.8218374 36.2133971,41 24.6787943,41 Z M24.6787943,37.0576923 C33.9952042,37.0576923 41.5476467,29.644561 41.5476467,20.5 C41.5476467,11.355439 33.9952042,3.94230769 24.6787943,3.94230769 C15.3623843,3.94230769 7.80994183,11.355439 7.80994183,20.5 C7.80994183,29.644561 15.3623843,37.0576923 24.6787943,37.0576923 Z" id="Combined-Shape" fill="#FFFFFF"></path>
                <path d="M15.3811302,-2.91449067 L33.6617216,-2.85630729 L33.6782809,44.6775709 L15.3976895,44.6193876 L15.3811302,-2.91449067 Z" id="Rectangle" stroke="#FFFFFF" stroke-width="1.97999994" fill="#4257B2" transform="translate(24.529706, 20.881540) rotate(-64.000000) translate(-24.529706, -20.881540) "></path>
                <path d="M21.7451884,19.141432 C21.0929088,20.4339281 20.48004,21.666235 19.8492572,22.8893143 C19.5883454,23.3952606 19.6793905,23.9637031 20.0939411,24.1753092 C20.5289346,24.3975061 21.1051325,24.1451097 21.3504486,23.6338156 C21.833283,22.6272708 22.3263389,21.6255496 22.8054852,20.6172223 C23.4327905,19.2969384 24.0646271,17.9785419 24.6665368,16.6468284 C24.9439927,16.0331916 24.7507325,15.6959639 24.1219518,15.5050151 C23.8893862,15.4344448 23.6678852,15.323923 23.4474378,15.218854 C22.3097948,14.6764166 21.1806873,14.1161532 20.0350357,13.5910176 C19.5095239,13.3501558 18.8235239,13.7310049 18.6688314,14.2829844 C18.5904314,14.562854 18.5005454,14.8454499 18.3706163,15.1042427 C17.4303432,16.9756673 16.4741583,18.8390176 15.5332529,20.7101276 C15.2641217,21.2454345 15.3895196,21.7118488 15.8230378,21.9320535 C16.2729948,22.1605419 16.748769,21.9653987 17.0140013,21.4283092 C17.5697561,20.3027491 18.1230873,19.1759307 18.6663024,18.0442887 C18.7733647,17.8210432 18.8744206,17.69301 19.1397583,17.8285931 C19.9798185,18.2579921 20.8244099,18.6783731 21.7451884,19.141432" id="Fill-4" fill="#000000"></path>
                <path d="M28.7919785,26.6342082 C28.468157,26.4745074 28.2169398,26.3516123 27.9665656,26.2267248 C27.370557,25.9295535 26.7810817,25.6184358 26.1771699,25.3381468 C25.732271,25.1315739 25.2552323,25.2763847 25.0718774,25.6342696 C24.8752452,26.0182645 25.0211914,26.4173591 25.4649312,26.6960752 C25.5536581,26.7517555 25.6504989,26.7948527 25.7449161,26.8412005 C26.688772,27.3046788 27.6327333,27.7678425 28.5769054,28.2304818 C29.3435183,28.6061928 29.702114,28.4827734 30.0845247,27.7051366 C30.6781097,26.4979959 31.2532538,25.2816276 31.8657011,24.0840292 C32.2716108,23.290244 32.2096495,23.0065995 31.4161656,22.6045688 C30.5906473,22.1862849 29.7602817,21.7776481 28.8765957,21.3370292 C29.0950409,20.8651621 29.2953613,20.4324077 29.5112774,19.9662031 C29.8182387,20.1159422 30.0678753,20.2377887 30.3176172,20.3594256 C31.0112043,20.6971775 31.6984688,21.048666 32.4005914,21.3677529 C32.8459118,21.5700266 33.3433935,21.4154639 33.5058839,21.0711059 C33.6772258,20.7077683 33.5083075,20.2372645 33.0718387,20.0205202 C31.9729742,19.4749371 30.872529,18.9299831 29.7513247,18.4329499 C28.9788108,18.0904793 28.2649914,18.494712 28.0805828,19.2980394 C28.0500237,19.4313156 27.9720452,19.5549448 27.9093462,19.6797274 C27.658129,20.1792772 27.3962688,20.6737939 27.154114,21.1777478 C26.9542151,21.5936199 27.0144903,21.9639831 27.4264065,22.2241391 C27.7514925,22.4293488 28.0835333,22.6250164 28.420843,22.8097785 C29.0271785,23.1419729 29.6399419,23.4630522 30.241114,23.7839217 C29.7462667,24.7573309 29.2817677,25.6706558 28.7919785,26.6342082" id="Fill-6" fill="#000000"></path>
                <path d="M37.8927222,24.0462169 C38.8439544,24.5166159 39.7481888,24.9696082 40.6581135,25.4114854 C41.1565437,25.6533959 41.7010232,25.535534 41.8651996,25.1687361 C42.0486598,24.7587361 41.8586662,24.3142373 41.3623437,24.0629944 C40.3927759,23.5722527 39.4184662,23.0908435 38.4400469,22.617823 C38.2374082,22.5198844 38.0132727,22.4498384 37.7912447,22.4114598 C37.2470813,22.3175059 36.4993308,22.7358946 36.4311523,23.1334164 C36.3915308,23.3642118 36.3357867,23.5993064 36.240948,23.8121708 C36.0208168,24.3065826 35.7668598,24.7861043 35.5377716,25.2766363 C35.3416662,25.6969125 35.4047867,26.0612987 35.8218662,26.3180992 C36.1343071,26.5105161 36.4466426,26.7048205 36.7707802,26.8764752 C37.3837544,27.2011197 38.0050533,27.5100353 38.6299351,27.8290174 C38.1310834,28.8164777 37.6608942,29.7472092 37.1757415,30.7074061 C36.7929092,30.5221197 36.4476963,30.3556031 36.1030103,30.1878281 C35.5373501,29.9125724 34.989077,29.5912834 34.4018146,29.3744343 C33.8818877,29.1824368 33.3480512,29.5184061 33.3988426,30.0243524 C33.4282426,30.3179586 33.719292,30.6849662 33.9942189,30.8366977 C34.9749566,31.3779816 35.9979501,31.8436619 37.0073501,32.3330404 C37.6844985,32.6614598 38.0856662,32.5295468 38.417391,31.8606491 C39.0229888,30.639667 39.6135178,29.4112399 40.2219609,28.1917258 C40.6601157,27.3137386 40.5998404,27.0938486 39.7273243,26.650713 C38.9186662,26.2400839 38.1056877,25.8378435 37.2418125,25.4052987 C37.4668963,24.9353192 37.6675329,24.5163013 37.8927222,24.0462169" id="Fill-8" fill="#000000"></path>
                <path d="M10.6741916,14.3098598 C10.9068626,14.4285606 11.0753594,14.5146501 11.2439615,14.6005299 C11.9460841,14.9578905 12.6412518,15.3299315 13.3525422,15.6681028 C13.9417013,15.9480772 14.2473981,15.84909 14.586183,15.3035069 C14.7128454,15.0995555 14.7870303,14.8641463 14.9011529,14.6515964 C15.2286626,14.0419442 15.5187637,13.4051335 15.9118174,12.839732 C16.2126669,12.4069775 16.250497,11.9846041 15.8063357,11.6809315 C15.5195013,11.4849494 15.1911486,11.3496808 14.8838712,11.1827448 C13.9961809,10.700287 13.1034325,10.2265325 12.225226,9.72740205 C11.7215271,9.4410312 11.2120325,9.59842506 10.9312045,10.1639315 C10.1786067,11.680512 9.42748409,13.1978266 8.66761527,14.7108419 C8.24495075,15.5525478 7.7761314,16.3729673 7.39403677,17.2320798 C7.28676366,17.4731514 7.30541527,17.91031 7.46126688,18.0895146 C7.63882602,18.293466 8.0607529,18.4294685 8.32777656,18.3717959 C8.57488409,18.3184225 8.82209699,18.0037396 8.95740022,17.7459954 C9.54065828,16.635535 10.0826088,15.5036834 10.6741916,14.3098598" id="Fill-10" fill="#000000"></path>
                <path d="M19.5169002,16.3416668 C20.5232443,16.8248586 21.4757411,17.2821501 22.4741819,17.761567 C22.6614357,17.384388 22.8251905,17.0547102 22.9979024,16.7066821 C21.9979862,16.1904596 21.0614013,15.7067435 20.0890938,15.2047818 C19.8866658,15.6068125 19.7172206,15.9436207 19.5169002,16.3416668 M21.7451884,19.141411 C20.8244099,18.6783522 19.9798185,18.2579711 19.1397583,17.8285721 C18.8744206,17.692989 18.7733647,17.8210223 18.6663024,18.0442678 C18.1230873,19.1759097 17.5697561,20.3027281 17.0140013,21.4282882 C16.748769,21.9653777 16.2729948,22.1606258 15.8230378,21.9320325 C15.3895196,21.7118279 15.2641217,21.2455184 15.5332529,20.7102115 C16.4741583,18.8389967 17.4303432,16.9756463 18.3706163,15.1042217 C18.5005454,14.8454289 18.5904314,14.5629379 18.6688314,14.2830683 C18.8235239,13.7310887 19.5095239,13.3501348 20.0350357,13.5911015 C21.1806873,14.1161322 22.3097948,14.6765005 23.4474378,15.218833 C23.6678852,15.323902 23.8893862,15.4344238 24.1219518,15.5049941 C24.7507325,15.695943 24.9439927,16.0331706 24.6665368,16.6469123 C24.0646271,17.978521 23.4327905,19.2970223 22.8054852,20.6172013 C22.3263389,21.6255286 21.833283,22.6272499 21.3504486,23.6337946 C21.1051325,24.1450887 20.5289346,24.3974852 20.0939411,24.1753931 C19.6793905,23.9636821 19.5883454,23.3952396 19.8492572,22.8892934 C20.48004,21.6662141 21.0929088,20.4339072 21.7451884,19.141411" id="Fill-24" stroke="#FFFFFF" stroke-width="0.5" fill="#FFFFFF"></path>
                <path d="M28.7919785,26.6342082 C29.2817677,25.6706558 29.7462667,24.7573309 30.241114,23.7839217 C29.6399419,23.4630522 29.0271785,23.1419729 28.420843,22.8097785 C28.0835333,22.6250164 27.7514925,22.4293488 27.4264065,22.2241391 C27.0144903,21.9639831 26.9542151,21.5936199 27.154114,21.1777478 C27.3962688,20.6737939 27.658129,20.1792772 27.9093462,19.6797274 C27.9720452,19.5549448 28.0500237,19.4313156 28.0805828,19.2980394 C28.2649914,18.494712 28.9788108,18.0904793 29.7513247,18.4329499 C30.872529,18.9299831 31.9729742,19.4749371 33.0718387,20.0205202 C33.5083075,20.2372645 33.6772258,20.7077683 33.5058839,21.0711059 C33.3433935,21.4154639 32.8459118,21.5700266 32.4005914,21.3677529 C31.6984688,21.048666 31.0112043,20.6971775 30.3176172,20.3594256 C30.0678753,20.2377887 29.8182387,20.1159422 29.5112774,19.9662031 C29.2953613,20.4324077 29.0950409,20.8651621 28.8765957,21.3370292 C29.7602817,21.7776481 30.5906473,22.1862849 31.4161656,22.6045688 C32.2096495,23.0065995 32.2716108,23.290244 31.8657011,24.0840292 C31.2532538,25.2816276 30.6781097,26.4979959 30.0845247,27.7051366 C29.702114,28.4827734 29.3435183,28.6061928 28.5769054,28.2304818 C27.6327333,27.7678425 26.688772,27.3046788 25.7449161,26.8412005 C25.6504989,26.7948527 25.5536581,26.7517555 25.4649312,26.6960752 C25.0211914,26.4173591 24.8752452,26.0182645 25.0718774,25.6342696 C25.2552323,25.2763847 25.732271,25.1315739 26.1771699,25.3381468 C26.7810817,25.6184358 27.370557,25.9295535 27.9665656,26.2267248 C28.2169398,26.3516123 28.468157,26.4745074 28.7919785,26.6342082" id="Fill-26" stroke="#FFFFFF" stroke-width="0.5" fill="#FFFFFF"></path>
                <path d="M37.8927222,24.0462169 C37.6675329,24.5163013 37.4668963,24.9353192 37.2418125,25.4052987 C38.1056877,25.8378435 38.9186662,26.2400839 39.7273243,26.650713 C40.5998404,27.0938486 40.6601157,27.3137386 40.2219609,28.1917258 C39.6135178,29.4112399 39.0229888,30.639667 38.417391,31.8606491 C38.0856662,32.5295468 37.6844985,32.6614598 37.0073501,32.3330404 C35.9979501,31.8436619 34.9749566,31.3779816 33.9942189,30.8366977 C33.719292,30.6849662 33.4282426,30.3179586 33.3988426,30.0243524 C33.3480512,29.5184061 33.8818877,29.1824368 34.4018146,29.3744343 C34.989077,29.5912834 35.5373501,29.9125724 36.1030103,30.1878281 C36.4476963,30.3556031 36.7929092,30.5221197 37.1757415,30.7074061 C37.6608942,29.7472092 38.1310834,28.8164777 38.6299351,27.8290174 C38.0050533,27.5100353 37.3837544,27.2011197 36.7707802,26.8764752 C36.4466426,26.7048205 36.1343071,26.5105161 35.8218662,26.3180992 C35.4047867,26.0612987 35.3416662,25.6969125 35.5377716,25.2766363 C35.7668598,24.7861043 36.0208168,24.3065826 36.240948,23.8121708 C36.3357867,23.5993064 36.3915308,23.3642118 36.4311523,23.1334164 C36.4993308,22.7358946 37.2470813,22.3175059 37.7912447,22.4114598 C38.0132727,22.4498384 38.2374082,22.5198844 38.4400469,22.617823 C39.4184662,23.0908435 40.3927759,23.5722527 41.3623437,24.0629944 C41.8586662,24.3142373 42.0486598,24.7587361 41.8651996,25.1687361 C41.7010232,25.535534 41.1565437,25.6533959 40.6581135,25.4114854 C39.7481888,24.9696082 38.8439544,24.5166159 37.8927222,24.0462169" id="Fill-28" stroke="#FFFFFF" stroke-width="0.5" fill="#FFFFFF"></path>
                <path d="M10.6742232,14.3098598 C10.0826404,15.5036834 9.54058452,16.635535 8.95743183,17.7459954 C8.8221286,18.0037396 8.5749157,18.3184225 8.32780817,18.3717959 C8.06078452,18.4294685 7.63885763,18.293466 7.46129849,18.0895146 C7.30534151,17.91031 7.28679527,17.4731514 7.39396301,17.2320798 C7.77605763,16.3729673 8.24498237,15.5525478 8.66764688,14.7108419 C9.4275157,13.1978266 10.1786383,11.680512 10.9312361,10.1639315 C11.2119587,9.59842506 11.7215587,9.4410312 12.2252576,9.72740205 C13.1033587,10.2265325 13.9962125,10.700287 14.8839028,11.1827448 C15.1911802,11.3496808 15.5195329,11.4849494 15.8062619,11.6809315 C16.2505286,11.9846041 16.2126985,12.4069775 15.9117437,12.8398368 C15.5186899,13.4051335 15.2286942,14.0419442 14.9011845,14.6515964 C14.7870619,14.8641463 14.712877,15.0995555 14.5862146,15.3035069 C14.2473243,15.84909 13.9417329,15.9480772 13.3525738,15.6681028 C12.6411781,15.3299315 11.9461157,14.9578905 11.2439931,14.6005299 C11.0752856,14.5146501 10.9068942,14.4285606 10.6742232,14.3098598" id="Fill-30" stroke="#FFFFFF" stroke-width="0.5" fill="#FFFFFF"></path>
                <path d="M19.5169002,16.3416668 C19.7172206,15.9436207 19.8866658,15.6068125 20.0890938,15.2047818 C21.0614013,15.7067435 21.9979862,16.1904596 22.9979024,16.7066821 C22.8251905,17.0547102 22.6614357,17.384388 22.4741819,17.761567 C21.4757411,17.2821501 20.5232443,16.8248586 19.5169002,16.3416668" id="Fill-34" fill="#4257B2"></path>
                <path d="M11.3140684,13.0429494 C11.544948,12.5627985 11.740948,12.1195581 11.9758318,11.6978138 C12.0217759,11.6153944 12.2493888,11.5491233 12.3415931,11.5902281 C12.8514039,11.816934 13.3547867,12.0627243 13.8365673,12.3423841 C13.9389931,12.4017345 14.0224512,12.6596885 13.9780877,12.7734609 C13.8214985,13.175177 13.6056877,13.5540338 13.3742813,14.0179315 C12.6985028,13.6981105 12.046434,13.3896143 11.3140684,13.0429494" id="Fill-36" fill="#4257B2"></path>
            </g>
        </g>
    </g>
</svg>